<?xml version="1.0" encoding="UTF-8"?><svg id="Layer_1" xmlns="http://www.w3.org/2000/svg" viewBox="0 0 129.87 44"><defs><style>.cls-1{fill:#1a1a1c;}.cls-2{fill:#fcfcfc;}</style></defs><path class="cls-2" d="M63.37,31.98l-7.19-20.28h3.46l5.88,17.31h-.68l5.85-17.31h3.46l-7.19,20.28h-3.59Z"/><path class="cls-2" d="M79.57,32.3c-1,0-1.87-.17-2.63-.52-.75-.34-1.34-.83-1.76-1.47-.42-.63-.63-1.38-.63-2.23,0-.8.18-1.51.53-2.15.35-.63.9-1.17,1.63-1.61.73-.44,1.67-.74,2.82-.93l5.12-.84v2.45l-4.52.76c-.82.14-1.42.41-1.8.79s-.57.85-.57,1.42.21,1.02.64,1.37c.43.35.98.53,1.65.53.82,0,1.54-.18,2.16-.54s1.12-.85,1.47-1.46c.35-.61.53-1.28.53-2.03v-3.78c0-.71-.27-1.29-.82-1.76-.55-.46-1.26-.69-2.15-.69-.8,0-1.5.21-2.11.63-.61.42-1.06.97-1.35,1.66l-2.59-1.28c.29-.73.74-1.37,1.35-1.93.61-.56,1.32-1,2.15-1.31.83-.31,1.71-.46,2.65-.46,1.16,0,2.19.22,3.09.65.9.44,1.6,1.04,2.09,1.81.5.77.75,1.67.75,2.68v9.91h-2.94v-2.64l.6.05c-.34.6-.78,1.12-1.31,1.55-.53.43-1.14.77-1.83,1.01s-1.44.35-2.26.35Z"/><path class="cls-2" d="M90.89,31.98v-14.73h2.94v2.89l-.35-.38c.36-.93.94-1.63,1.74-2.11.8-.48,1.72-.72,2.78-.72s2.05.24,2.88.71c.83.47,1.49,1.13,1.96,1.96.47.83.71,1.8.71,2.88v9.5h-3.08v-8.68c0-.73-.14-1.35-.41-1.86-.27-.52-.65-.92-1.14-1.21-.49-.29-1.05-.44-1.69-.44s-1.2.15-1.7.44c-.5.29-.88.69-1.16,1.21-.27.52-.41,1.14-.41,1.86v8.68h-3.08Z"/><path class="cls-2" d="M113.21,32.14c-1.54,0-2.74-.44-3.59-1.31s-1.28-2.1-1.28-3.67v-7.1h-2.61v-2.8h.41c.69,0,1.23-.2,1.62-.6.39-.4.59-.94.59-1.63v-1.14h3.08v3.38h3.35v2.8h-3.35v6.97c0,.51.08.94.25,1.29s.43.63.79.82.83.29,1.42.29c.14,0,.31,0,.49-.03.18-.02.35-.04.52-.05v2.64c-.25.04-.54.07-.84.11s-.58.05-.82.05Z"/><path class="cls-2" d="M122.14,32.3c-1,0-1.87-.17-2.63-.52s-1.34-.83-1.76-1.47c-.42-.63-.63-1.38-.63-2.23,0-.8.18-1.51.53-2.15.35-.63.9-1.17,1.63-1.61.73-.44,1.67-.74,2.82-.93l5.12-.84v2.45l-4.52.76c-.82.14-1.42.41-1.8.79s-.57.85-.57,1.42.21,1.02.64,1.37c.43.35.98.53,1.65.53.82,0,1.54-.18,2.16-.54.63-.36,1.12-.85,1.47-1.46.35-.61.53-1.28.53-2.03v-3.78c0-.71-.27-1.29-.82-1.76-.54-.46-1.26-.69-2.15-.69-.8,0-1.5.21-2.11.63-.61.42-1.06.97-1.35,1.66l-2.59-1.28c.29-.73.74-1.37,1.35-1.93.61-.56,1.33-1,2.15-1.31.83-.31,1.71-.46,2.65-.46,1.16,0,2.19.22,3.09.65.9.44,1.6,1.04,2.1,1.81.5.77.75,1.67.75,2.68v9.91h-2.94v-2.64l.6.05c-.35.6-.78,1.12-1.31,1.55-.53.43-1.13.77-1.82,1.01s-1.44.35-2.26.35Z"/><circle class="cls-2" cx="22" cy="22" r="22"/><polygon class="cls-1" points="32.3 11.7 32.3 24.06 28.18 24.06 28.18 28.18 24.06 28.18 24.06 32.3 19.94 32.3 19.94 28.18 15.82 28.18 15.82 24.06 11.7 24.06 11.7 11.7 15.82 11.7 15.82 19.94 19.94 19.94 19.94 24.06 24.06 24.06 24.06 19.94 28.18 19.94 28.18 11.7 32.3 11.7"/></svg>